<?xml version="1.0" encoding="UTF-8" standalone="no"?>
<svg width="191px" height="199px" viewBox="0 0 191 199" version="1.1" xmlns="http://www.w3.org/2000/svg" xmlns:xlink="http://www.w3.org/1999/xlink" xmlns:sketch="http://www.bohemiancoding.com/sketch/ns">
    <!-- Generator: Sketch 3.3.2 (12043) - http://www.bohemiancoding.com/sketch -->
    <title>movie copy 2</title>
    <desc>Created with Sketch.</desc>
    <defs>
        <linearGradient x1="0%" y1="0%" x2="95.5558737%" y2="95.0102073%" id="linearGradient-1">
            <stop stop-color="#0EBEC0" offset="0%"></stop>
            <stop stop-color="#18D9AD" offset="100%"></stop>
        </linearGradient>
    </defs>
    <g id="Page-1" stroke="none" stroke-width="1" fill="none" fill-rule="evenodd" sketch:type="MSPage">
        <g id="movie-copy-2" sketch:type="MSLayerGroup">
            <g id="Page-1" sketch:type="MSShapeGroup">
                <g id="Group">
                    <rect id="Rectangle-1" fill="url(#linearGradient-1)" x="0" y="0" width="191" height="199" rx="8"></rect>
                    <rect id="Rectangle-2" fill="#FFFFFF" x="14" y="14" width="23" height="23" rx="4"></rect>
                    <rect id="Rectangle-2-Copy" fill="#FFFFFF" x="14" y="52" width="23" height="23" rx="4"></rect>
                    <rect id="Rectangle-2-Copy-2" fill="#FFFFFF" x="14" y="91" width="23" height="23" rx="4"></rect>
                    <rect id="Rectangle-2-Copy-3" fill="#FFFFFF" x="14" y="127" width="23" height="23" rx="4"></rect>
                    <rect id="Rectangle-2-Copy-4" fill="#FFFFFF" x="14" y="162" width="23" height="23" rx="4"></rect>
                    <rect id="Rectangle-2-Copy-9" fill="#FFFFFF" x="154" y="14" width="23" height="23" rx="4"></rect>
                    <rect id="Rectangle-2-Copy-5" fill="#FFFFFF" x="154" y="52" width="23" height="23" rx="4"></rect>
                    <rect id="Rectangle-2-Copy-6" fill="#FFFFFF" x="154" y="91" width="23" height="23" rx="4"></rect>
                    <rect id="Rectangle-2-Copy-7" fill="#FFFFFF" x="154" y="127" width="23" height="23" rx="4"></rect>
                    <rect id="Rectangle-2-Copy-8" fill="#FFFFFF" x="154" y="162" width="23" height="23" rx="4"></rect>
                </g>
            </g>
        </g>
    </g>
</svg>