<?xml version="1.0" encoding="UTF-8" standalone="no"?>
<svg width="191px" height="199px" viewBox="0 0 191 199" version="1.1" xmlns="http://www.w3.org/2000/svg" xmlns:xlink="http://www.w3.org/1999/xlink" xmlns:sketch="http://www.bohemiancoding.com/sketch/ns">
    <!-- Generator: Sketch 3.3.2 (12043) - http://www.bohemiancoding.com/sketch -->
    <title>Group</title>
    <desc>Created with Sketch.</desc>
    <defs>
        <linearGradient x1="96.3964332%" y1="87.7532192%" x2="24.4314463%" y2="54.9230528%" id="linearGradient-1">
            <stop stop-color="#18D9AD" offset="0%"></stop>
            <stop stop-color="#3DA68E" offset="100%"></stop>
        </linearGradient>
    </defs>
    <g id="Page-1" stroke="none" stroke-width="1" fill="none" fill-rule="evenodd" sketch:type="MSPage">
        <g id="Group" sketch:type="MSLayerGroup">
            <rect id="Rectangle-1" fill="url(#linearGradient-1)" sketch:type="MSShapeGroup" x="0" y="0" width="191" height="199" rx="8"></rect>
            <rect id="Rectangle-2" fill="#FFFFFF" sketch:type="MSShapeGroup" x="14" y="14" width="23" height="23" rx="4"></rect>
            <rect id="Rectangle-2-Copy" fill="#FFFFFF" sketch:type="MSShapeGroup" x="14" y="52" width="23" height="23" rx="4"></rect>
            <rect id="Rectangle-2-Copy-2" fill="#FFFFFF" sketch:type="MSShapeGroup" x="14" y="91" width="23" height="23" rx="4"></rect>
            <rect id="Rectangle-2-Copy-3" fill="#FFFFFF" sketch:type="MSShapeGroup" x="14" y="127" width="23" height="23" rx="4"></rect>
            <rect id="Rectangle-2-Copy-4" fill="#FFFFFF" sketch:type="MSShapeGroup" x="14" y="162" width="23" height="23" rx="4"></rect>
            <rect id="Rectangle-2-Copy-9" fill="#FFFFFF" sketch:type="MSShapeGroup" x="154" y="14" width="23" height="23" rx="4"></rect>
            <rect id="Rectangle-2-Copy-5" fill="#FFFFFF" sketch:type="MSShapeGroup" x="154" y="52" width="23" height="23" rx="4"></rect>
            <rect id="Rectangle-2-Copy-6" fill="#FFFFFF" sketch:type="MSShapeGroup" x="154" y="91" width="23" height="23" rx="4"></rect>
            <rect id="Rectangle-2-Copy-7" fill="#FFFFFF" sketch:type="MSShapeGroup" x="154" y="127" width="23" height="23" rx="4"></rect>
            <rect id="Rectangle-2-Copy-8" fill="#FFFFFF" sketch:type="MSShapeGroup" x="154" y="162" width="23" height="23" rx="4"></rect>
        </g>
    </g>
</svg>